<?xml version="1.0" encoding="UTF-8" standalone="no"?>
<!-- Created with Inkscape (http://www.inkscape.org/) -->

<svg
   xmlns:dc="http://purl.org/dc/elements/1.1/"
   xmlns:cc="http://creativecommons.org/ns#"
   xmlns:rdf="http://www.w3.org/1999/02/22-rdf-syntax-ns#"
   xmlns:svg="http://www.w3.org/2000/svg"
   xmlns="http://www.w3.org/2000/svg"
   xmlns:xlink="http://www.w3.org/1999/xlink"
   xmlns:sodipodi="http://sodipodi.sourceforge.net/DTD/sodipodi-0.dtd"
   xmlns:inkscape="http://www.inkscape.org/namespaces/inkscape"
   width="744.09448819"
   height="1052.3622047"
   id="svg2"
   version="1.1"
   inkscape:version="0.48.4 r9939"
   sodipodi:docname="cat_olivia.svg">
  <defs
     id="defs4">
    <filter
       inkscape:collect="always"
       id="filter4559"
       x="-0.31250536"
       width="1.6250107"
       y="-0.27991276"
       height="1.5598255">
      <feGaussianBlur
         inkscape:collect="always"
         stdDeviation="13.579102"
         id="feGaussianBlur4561" />
    </filter>
  </defs>
  <sodipodi:namedview
     id="base"
     pagecolor="#ffffff"
     bordercolor="#666666"
     borderopacity="1.0"
     inkscape:pageopacity="0.0"
     inkscape:pageshadow="2"
     inkscape:zoom="0.6863413"
     inkscape:cx="517.07012"
     inkscape:cy="500.02908"
     inkscape:document-units="px"
     inkscape:current-layer="layer1"
     showgrid="false"
     inkscape:window-width="1920"
     inkscape:window-height="1017"
     inkscape:window-x="-8"
     inkscape:window-y="-8"
     inkscape:window-maximized="1" />
  <metadata
     id="metadata7">
    <rdf:RDF>
      <cc:Work
         rdf:about="">
        <dc:format>image/svg+xml</dc:format>
        <dc:type
           rdf:resource="http://purl.org/dc/dcmitype/StillImage" />
        <dc:title></dc:title>
      </cc:Work>
    </rdf:RDF>
  </metadata>
  <g
     inkscape:label="Layer 1"
     inkscape:groupmode="layer"
     id="layer1">
    <image
       y="-746.74615"
       x="-126.81704"
       id="image2993"
       xlink:href="file:///C:/Users/simonk/Downloads/20200315_211805.jpg"
       height="840.19214"
       width="1120.2562"
       transform="matrix(0,1,-1,0,0,0)"
       style="opacity:0.53097343;display:none"
       sodipodi:insensitive="true">
      <desc
         id="desc2998">cat</desc>
      <title
         id="title2996">olivias_cat</title>
    </image>
    <g
       id="g4565">
      <path
         sodipodi:nodetypes="cscscc"
         inkscape:connector-curvature="0"
         id="path4521"
         d="m 94.243641,717.14113 c 0,0 -26.245065,24.33633 -32.687035,52.25154 -6.44197,27.9152 -3.340281,45.09379 -3.340281,45.09379 0,0 4.77183,-28.39239 23.143375,-51.77435 18.371545,-23.38197 18.610137,-23.38197 18.610137,-23.38197 z"
         style="fill:#483737;stroke:#000000;stroke-width:1px;stroke-linecap:butt;stroke-linejoin:miter;stroke-opacity:1" />
      <path
         inkscape:connector-curvature="0"
         id="path4523"
         d="m 110.70645,742.19324 c 0,0 7.63493,24.81351 11.69099,35.07295 4.05605,10.25943 11.45239,19.5645 11.45239,19.5645 0,0 2.14732,-14.0769 -3.10169,-33.40281 -5.24901,-19.32591 -7.63493,-26.48365 -7.63493,-26.48365 z"
         style="fill:#483737;stroke:#000000;stroke-width:1px;stroke-linecap:butt;stroke-linejoin:miter;stroke-opacity:1" />
      <path
         inkscape:connector-curvature="0"
         id="path4525"
         d="m 133.84983,727.87775 c 0,0 21.23464,16.46281 27.19943,25.2907 5.96479,8.82788 16.46281,29.10816 16.46281,29.10816 0,0 7.15775,-19.80309 1.19296,-30.06253 -5.96479,-10.25943 -31.01689,-33.87999 -31.01689,-33.87999 z"
         style="fill:#483737;stroke:#000000;stroke-width:1px;stroke-linecap:butt;stroke-linejoin:miter;stroke-opacity:1" />
      <path
         inkscape:connector-curvature="0"
         id="path4531"
         d="m 221.76246,802.01014 c 0,0 -14.16601,12.1055 -22.66562,28.33202 -8.4996,16.22652 -9.78742,37.60432 -9.78742,37.60432 0,0 7.98447,-19.57485 20.86267,-34.51355 12.87819,-14.93871 15.71139,-18.02947 15.71139,-18.02947 z"
         style="fill:#483737;stroke:#000000;stroke-width:1px;stroke-linecap:butt;stroke-linejoin:miter;stroke-opacity:1" />
      <path
         inkscape:connector-curvature="0"
         id="path4533"
         d="m 230.77719,819.78204 c 0,0 7.21179,28.07446 13.39332,40.95265 6.18153,12.87819 21.3778,21.89293 21.3778,21.89293 0,0 -11.59037,-30.39253 -15.19627,-42.24047 C 246.74615,828.53921 242.11,814.3732 242.11,814.3732 z"
         style="fill:#483737;stroke:#000000;stroke-width:1px;stroke-linecap:butt;stroke-linejoin:miter;stroke-opacity:1" />
      <path
         inkscape:connector-curvature="0"
         id="path4535"
         d="m 256.53358,803.81309 c 0,0 12.36306,20.6051 19.83241,26.01394 7.46935,5.40884 37.08919,18.28703 37.08919,18.28703 0,0 -30.13497,-22.92318 -35.02868,-29.61984 -4.89371,-6.69666 -15.19626,-21.37779 -15.19626,-21.37779 z"
         style="fill:#483737;stroke:#000000;stroke-width:1px;stroke-linecap:butt;stroke-linejoin:miter;stroke-opacity:1" />
      <path
         inkscape:connector-curvature="0"
         id="path4537"
         d="m 386.86087,785.78362 c 0,0 -12.1055,50.48251 -12.1055,54.86109 0,4.37859 2.83321,10.04499 2.83321,10.04499 0,0 7.72691,-1.03025 9.52986,-9.2723 1.80295,-8.24204 6.95422,-47.13418 6.95422,-47.13418 z"
         style="fill:#483737;stroke:#000000;stroke-width:1px;stroke-linecap:butt;stroke-linejoin:miter;stroke-opacity:1" />
      <path
         inkscape:connector-curvature="0"
         id="path4539"
         d="m 396.13317,793.25297 c 0,0 -2.31807,16.99921 10.56012,30.90766 12.87819,13.90845 26.52907,22.92318 26.52907,22.92318 0,0 -12.1055,-18.80216 -19.05972,-33.4833 -6.95422,-14.68114 -10.30255,-22.66562 -10.30255,-22.66562 z"
         style="fill:#483737;stroke:#000000;stroke-width:1px;stroke-linecap:butt;stroke-linejoin:miter;stroke-opacity:1" />
      <path
         inkscape:connector-curvature="0"
         id="path4541"
         d="m 407.98111,788.61682 c 0,0 9.78742,18.80216 33.22573,24.211 23.43831,5.40884 43.01316,3.09077 43.01316,3.09077 0,0 -32.7106,-9.78743 -48.67956,-20.08998 -15.96896,-10.30256 -20.60511,-12.87819 -20.60511,-12.87819 z"
         style="fill:#483737;stroke:#000000;stroke-width:1px;stroke-linecap:butt;stroke-linejoin:miter;stroke-opacity:1" />
      <path
         inkscape:connector-curvature="0"
         id="path4543"
         d="m 506.37049,718.04433 c 0,0 21.12024,34.25599 25.49882,45.84636 4.37859,11.59037 18.80216,38.63458 18.80216,38.63458 0,0 -2.06051,-32.45305 -6.95422,-45.84637 -4.89372,-13.39331 -23.43831,-39.40726 -23.43831,-39.40726 z"
         style="fill:#483737;stroke:#000000;stroke-width:1px;stroke-linecap:butt;stroke-linejoin:miter;stroke-opacity:1" />
      <path
         inkscape:connector-curvature="0"
         id="path4545"
         d="m 533.67226,707.74178 c 0,0 8.24204,20.6051 21.63536,27.55933 13.39332,6.95422 39.66483,3.60589 39.66483,3.60589 0,0 -28.33202,-4.63615 -39.1497,-16.22652 -10.81768,-11.59037 -14.9387,-20.08998 -14.9387,-20.08998 z"
         style="fill:#483737;stroke:#000000;stroke-width:1px;stroke-linecap:butt;stroke-linejoin:miter;stroke-opacity:1" />
      <path
         inkscape:connector-curvature="0"
         id="path4547"
         d="m 529.8088,682.75808 c 0,0 14.68114,1.54539 44.55854,-2.8332 29.87741,-4.37858 47.13418,-7.98448 47.13418,-7.98448 0,0 -31.42278,24.72613 -49.70981,24.46857 -18.28704,-0.25757 -34.77112,-4.89371 -34.77112,-4.89371 z"
         style="fill:#483737;stroke:#000000;stroke-width:1px;stroke-linecap:butt;stroke-linejoin:miter;stroke-opacity:1" />
      <path
         sodipodi:nodetypes="ccsssscscccc"
         inkscape:connector-curvature="0"
         id="path4549"
         d="m 414.16264,547.02195 -4.12102,24.72612 c 0,0 57.17917,24.211 84.99606,30.39254 27.8169,6.18153 60.78507,15.45383 100.4499,-12.36307 39.66483,-27.81689 69.54223,-71.60274 70.05736,-78.2994 0.51513,-6.69666 6.18153,-4.12102 -2.06051,-39.66483 -8.24204,-35.54381 -10.81768,-70.05736 -10.81768,-70.05736 0,0 -1.54539,-17.51435 -14.42358,-22.15049 -12.87819,-4.63615 -9.27229,29.36227 -9.27229,29.36227 0,0 19.57485,61.30019 -36.57407,112.29783 -40.77279,39.37419 -57.21686,41.61256 -117.96423,36.57407 -22.66562,-4.12102 -60.26994,-10.81768 -60.26994,-10.81768 z"
         style="fill:#483737;stroke:#000000;stroke-width:1px;stroke-linecap:butt;stroke-linejoin:miter;stroke-opacity:1" />
      <path
         sodipodi:nodetypes="ccscscc"
         inkscape:connector-curvature="0"
         id="path4515"
         d="m 405.99086,594.70277 102.11587,85.4182 c 0,0 11.61675,-11.61675 27.7792,5.55584 16.16244,17.17259 4.54568,23.23351 4.54568,23.23351 0,0 -12.12183,19.1929 -27.27412,14.64721 C 498.00521,719.01184 397.49503,620.01689 397.49503,620.01689 z"
         style="fill:#d45500;stroke:#000000;stroke-width:1px;stroke-linecap:butt;stroke-linejoin:miter;stroke-opacity:1" />
      <path
         sodipodi:nodetypes="cscscc"
         inkscape:connector-curvature="0"
         id="path4513"
         d="m 342.40151,665.84817 c -8.3588,-25.07641 34.38539,115.79313 42.97169,126.90481 8.5863,11.11168 30.80965,-4.54569 30.80965,-4.54569 0,0 11.11168,-29.29442 -7.07107,-72.73098 -18.18274,-43.43656 -32.32488,-66.16499 -32.32488,-66.16499 z"
         style="fill:#d45500;stroke:#000000;stroke-width:1px;stroke-linecap:butt;stroke-linejoin:miter;stroke-opacity:1" />
      <path
         sodipodi:nodetypes="ccsssc"
         inkscape:connector-curvature="0"
         id="path4517"
         d="m 263.64981,659.36258 30.34479,10.58651 c 0,0 -19.23311,118.76328 -30.34479,131.39018 -11.11167,12.62691 -24.74873,28.78935 -33.33503,25.75889 -8.5863,-3.03045 -17.17259,-0.50507 -16.16244,-17.67766 1.01015,-17.1726 49.49747,-150.05792 49.49747,-150.05792 z"
         style="fill:#d45500;stroke:#000000;stroke-width:1px;stroke-linecap:butt;stroke-linejoin:miter;stroke-opacity:1" />
      <path
         sodipodi:nodetypes="csssscc"
         inkscape:connector-curvature="0"
         id="path4519"
         d="m 225.98323,613.52135 c 0,0 -66.38389,94.67312 -71.44518,100.40925 -5.06129,5.73612 -32.05483,36.7787 -50.6129,31.71741 -18.55806,-5.06129 -11.134834,-37.45354 -7.085802,-45.88903 4.049032,-8.43548 71.195482,-85.36709 83.005152,-98.18902 11.80968,-12.82194 34.75419,-33.74193 34.75419,-33.74193 z"
         style="fill:#d45500;stroke:#000000;stroke-width:1px;stroke-linecap:butt;stroke-linejoin:miter;stroke-opacity:1" />
      <path
         sodipodi:type="arc"
         style="fill:#d45500;fill-opacity:1;stroke:#000000;stroke-opacity:1"
         id="path3770"
         sodipodi:cx="287.89346"
         sodipodi:cy="333.13358"
         sodipodi:rx="110.10663"
         sodipodi:ry="109.09647"
         d="m 398.00009,333.13358 a 110.10663,109.09647 0 1 1 -220.21326,0 110.10663,109.09647 0 1 1 220.21326,0 z"
         transform="matrix(0.86135643,0.3648822,-0.3582452,1.0389854,186.46041,105.49485)" />
      <path
         sodipodi:nodetypes="cssscsc"
         inkscape:connector-curvature="0"
         id="path3790"
         d="m 399.01026,283.13102 c 0,0 12.12183,26.26397 14.14213,32.82996 2.02031,6.56599 2.19746,58.37149 1.69238,59.88672 -0.50508,1.51523 81.64521,-86.65577 98.31272,-124.03141 16.66752,-37.37564 27.7792,-67.17514 27.7792,-67.17514 0,0 -54.54824,31.31472 -73.74114,50.00255 -19.1929,18.68782 -68.18529,48.48732 -68.18529,48.48732 z"
         style="fill:#483e37;fill-opacity:1;stroke:#241f1c;stroke-width:1;stroke-linecap:butt;stroke-linejoin:miter;stroke-miterlimit:4;stroke-opacity:1;stroke-dasharray:none" />
      <path
         inkscape:connector-curvature="0"
         id="path3788"
         d="m 236.3757,317.98128 c 0,0 -18.18275,-39.90102 -22.22336,-89.3985 -4.04061,-49.49747 -9.59645,-106.57109 -9.59645,-106.57109 0,0 40.91118,43.43656 45.96194,62.62946 5.05076,19.19289 41.41626,68.18529 41.41626,68.18529 0,0 -28.78935,16.16244 -36.3655,27.7792 -7.57614,11.61675 -19.19289,37.37564 -19.19289,37.37564 z"
         style="fill:#483e37;stroke:#241f1c;stroke-width:1;stroke-linecap:butt;stroke-linejoin:miter;stroke-opacity:1;fill-opacity:1;stroke-miterlimit:4;stroke-dasharray:none" />
      <path
         transform="matrix(0.81038769,0.33888242,-0.33704688,0.96495222,200.85782,-60.928492)"
         d="m 398.00009,333.13358 a 110.10663,109.09647 0 1 1 -220.21326,0 110.10663,109.09647 0 1 1 220.21326,0 z"
         sodipodi:ry="109.09647"
         sodipodi:rx="110.10663"
         sodipodi:cy="333.13358"
         sodipodi:cx="287.89346"
         id="path3768"
         style="fill:#d45500;fill-opacity:1;stroke:#000000;stroke-opacity:1"
         sodipodi:type="arc" />
      <path
         d="m 366.42856,557.00507 a 52.142857,58.214287 0 1 1 -104.28571,0 52.142857,58.214287 0 1 1 104.28571,0 z"
         sodipodi:ry="58.214287"
         sodipodi:rx="52.142857"
         sodipodi:cy="557.00507"
         sodipodi:cx="314.28571"
         id="path3772"
         style="fill:#552200;fill-opacity:1;stroke:none;filter:url(#filter4559)"
         sodipodi:type="arc" />
      <path
         d="m 307.85714,349.14789 a 20.714285,28.214285 0 1 1 -41.42857,0 20.714285,28.214285 0 1 1 41.42857,0 z"
         sodipodi:ry="28.214285"
         sodipodi:rx="20.714285"
         sodipodi:cy="349.14789"
         sodipodi:cx="287.14285"
         id="path3774"
         style="fill:#ff8080;fill-opacity:1;stroke:#000000;stroke-opacity:1"
         sodipodi:type="arc" />
      <path
         transform="matrix(0.98294458,0.18390201,-0.18390201,0.98294458,123.6446,-39.708428)"
         sodipodi:type="arc"
         style="fill:#ff8080;fill-opacity:1;stroke:#000000;stroke-opacity:1"
         id="path3776"
         sodipodi:cx="287.14285"
         sodipodi:cy="349.14789"
         sodipodi:rx="20.714285"
         sodipodi:ry="28.214285"
         d="m 307.85714,349.14789 a 20.714285,28.214285 0 1 1 -41.42857,0 20.714285,28.214285 0 1 1 41.42857,0 z" />
      <path
         transform="matrix(0.9359328,0.35217864,-0.35217864,0.9359328,147.7208,-98.27073)"
         d="m 355.82624,364.70084 a 7.5761442,15.404826 0 1 1 -15.15229,0 7.5761442,15.404826 0 1 1 15.15229,0 z"
         sodipodi:ry="15.404826"
         sodipodi:rx="7.5761442"
         sodipodi:cy="364.70084"
         sodipodi:cx="348.25009"
         id="path3778"
         style="fill:#668000;fill-opacity:1;stroke:#000000;stroke-opacity:1"
         sodipodi:type="arc" />
      <path
         sodipodi:type="arc"
         style="fill:#668000;fill-opacity:1;stroke:#000000;stroke-opacity:1"
         id="path3782"
         sodipodi:cx="348.25009"
         sodipodi:cy="364.70084"
         sodipodi:rx="7.5761442"
         sodipodi:ry="15.404826"
         d="m 355.82624,364.70084 a 7.5761442,15.404826 0 1 1 -15.15229,0 7.5761442,15.404826 0 1 1 15.15229,0 z"
         transform="matrix(0.9359328,0.35217864,-0.35217864,0.9359328,93.172562,-110.6451)" />
      <path
         sodipodi:nodetypes="cscssc"
         inkscape:connector-curvature="0"
         id="path3784"
         d="m 251.27545,411.42039 c 19.95051,5.80838 21.46574,5.80838 25.00127,4.54569 3.53554,-1.26269 20.96067,-14.89975 20.96067,-14.89975 0,0 2.52538,13.63706 6.56599,18.18274 4.04061,4.54569 10.35406,12.12183 21.2132,12.87945 10.85914,0.75761 22.4759,-4.54569 22.4759,-4.54569"
         style="fill:none;stroke:#000000;stroke-width:6.20000000000000020;stroke-linecap:butt;stroke-linejoin:round;stroke-opacity:1;stroke-miterlimit:4;stroke-dasharray:none" />
      <path
         inkscape:connector-curvature="0"
         id="path4563"
         d="m 284.09291,396.3471 c 19.05972,6.18154 42.49803,14.68114 39.92239,6.4391 -2.57564,-8.24204 -7.72692,-15.96896 -15.19627,-17.25678 -7.46935,-1.28782 -26.52907,5.15128 -25.24125,8.49961 1.28782,3.34833 0.51513,2.31807 0.51513,2.31807 z"
         style="fill:#000000;stroke:#000000;stroke-width:1px;stroke-linecap:butt;stroke-linejoin:miter;stroke-opacity:1" />
    </g>
  </g>
</svg>
